<?xml version="1.0" encoding="UTF-8" standalone="no"?>
<!-- Created with Inkscape (http://www.inkscape.org/) -->

<svg
   xmlns:dc="http://purl.org/dc/elements/1.1/"
   xmlns:cc="http://creativecommons.org/ns#"
   xmlns:rdf="http://www.w3.org/1999/02/22-rdf-syntax-ns#"
   xmlns:svg="http://www.w3.org/2000/svg"
   xmlns="http://www.w3.org/2000/svg"
   xmlns:sodipodi="http://sodipodi.sourceforge.net/DTD/sodipodi-0.dtd"
   xmlns:inkscape="http://www.inkscape.org/namespaces/inkscape"
   width="210mm"
   height="210mm"
   viewBox="0 0 744.09449 744.09448"
   id="svg2"
   version="1.1"
   inkscape:version="0.91 r13725"
   sodipodi:docname="favicon.svg"
   inkscape:export-filename="/Users/vishal/builds/dishbreak.com/img/favicon.ico"
   inkscape:export-xdpi="3.8704762"
   inkscape:export-ydpi="3.8704762">
  <defs
     id="defs4" />
  <sodipodi:namedview
     id="base"
     pagecolor="#ffffff"
     bordercolor="#666666"
     borderopacity="1.0"
     inkscape:pageopacity="0.0"
     inkscape:pageshadow="2"
     inkscape:zoom="0.03125"
     inkscape:cx="291.81763"
     inkscape:cy="364.73519"
     inkscape:document-units="px"
     inkscape:current-layer="layer1"
     showgrid="false"
     inkscape:window-width="1904"
     inkscape:window-height="1314"
     inkscape:window-x="526"
     inkscape:window-y="57"
     inkscape:window-maximized="0"
     inkscape:object-paths="true"
     inkscape:snap-intersection-paths="true" />
  <metadata
     id="metadata7">
    <rdf:RDF>
      <cc:Work
         rdf:about="">
        <dc:format>image/svg+xml</dc:format>
        <dc:type
           rdf:resource="http://purl.org/dc/dcmitype/StillImage" />
        <dc:title></dc:title>
      </cc:Work>
    </rdf:RDF>
  </metadata>
  <g
     inkscape:label="Layer 1"
     inkscape:groupmode="layer"
     id="layer1"
     transform="translate(0,-308.26772)">
    <text
       transform="scale(1.1434694,0.87453148)"
       sodipodi:linespacing="125%"
       id="text4161"
       y="1879.6245"
       x="-1692.5758"
       style="font-style:normal;font-weight:normal;font-size:942.04553223px;line-height:125%;font-family:sans-serif;letter-spacing:0px;word-spacing:0px;fill:#ff6600;fill-opacity:1;stroke:none;stroke-width:1px;stroke-linecap:butt;stroke-linejoin:miter;stroke-opacity:1"
       xml:space="preserve"><tspan
         y="1879.6245"
         x="-1692.5758"
         id="tspan4163"
         sodipodi:role="line">K</tspan></text>
    <text
       xml:space="preserve"
       style="font-style:normal;font-weight:normal;font-size:846.51629639px;line-height:125%;font-family:sans-serif;letter-spacing:0px;word-spacing:0px;fill:#000000;fill-opacity:1;stroke:none;stroke-width:1px;stroke-linecap:butt;stroke-linejoin:miter;stroke-opacity:1"
       x="-1785.9155"
       y="1689.019"
       id="text4136"
       sodipodi:linespacing="125%"
       transform="scale(1.0275146,0.97322218)"><tspan
         sodipodi:role="line"
         id="tspan4138"
         x="-1785.9155"
         y="1689.019">V</tspan></text>
    <ellipse
       style="fill:#ff6600;fill-opacity:0"
       id="path4184"
       cx="80"
       cy="486.64792"
       rx="394.28571"
       ry="474.28571" />
    <ellipse
       style="fill:#ff0000;fill-opacity:0"
       id="path4188"
       cx="83.643715"
       cy="389.90399"
       rx="153.23529"
       ry="165.94913" />
    <path
       style="fill:#ff0000;fill-opacity:1;stroke:#ff0000;stroke-width:1.33893335"
       d="m 372.04688,390.75726 a 289.55694,289.55694 0 0 0 -20.48234,0.72551 289.55694,289.55694 0 0 0 -28.73188,3.48775 289.55694,289.55694 0 0 0 -28.24173,6.34023 289.55694,289.55694 0 0 0 -27.46667,9.12548 289.55694,289.55694 0 0 0 -26.41912,11.82401 289.55694,289.55694 0 0 0 -25.10611,14.40045 289.55694,289.55694 0 0 0 -23.54362,16.8371 289.55694,289.55694 0 0 0 -21.744,19.10209 289.55694,289.55694 0 0 0 -19.73028,21.17775 289.55694,289.55694 0 0 0 -17.51483,23.04108 289.55694,289.55694 0 0 0 -15.1295,24.67435 289.55694,289.55694 0 0 0 -12.58844,26.06343 289.55694,289.55694 0 0 0 -9.925308,27.18886 289.55694,289.55694 0 0 0 -7.161295,28.04353 289.55694,289.55694 0 0 0 -4.324736,28.61864 289.55694,289.55694 0 0 0 -1.447476,28.90708 289.55694,289.55694 0 0 0 0.725507,20.48233 289.55694,289.55694 0 0 0 3.487747,28.73365 289.55694,289.55694 0 0 0 6.340233,28.23996 289.55694,289.55694 0 0 0 9.125478,27.46844 289.55694,289.55694 0 0 0 11.82401,26.41734 289.55694,289.55694 0 0 0 14.40045,25.10611 289.55694,289.55694 0 0 0 16.8371,23.54363 289.55694,289.55694 0 0 0 19.10209,21.74577 289.55694,289.55694 0 0 0 21.17775,19.72851 289.55694,289.55694 0 0 0 23.04108,17.5166 289.55694,289.55694 0 0 0 24.67435,15.12772 289.55694,289.55694 0 0 0 26.06343,12.59022 289.55694,289.55694 0 0 0 27.18886,9.92353 289.55694,289.55694 0 0 0 28.04353,7.1613 289.55694,289.55694 0 0 0 28.61864,4.32474 289.55694,289.55694 0 0 0 28.90708,1.44747 289.55694,289.55694 0 0 0 20.48233,-0.72551 289.55694,289.55694 0 0 0 28.73365,-3.48774 289.55694,289.55694 0 0 0 28.23996,-6.33846 289.55694,289.55694 0 0 0 27.46844,-9.12725 289.55694,289.55694 0 0 0 26.41734,-11.82224 289.55694,289.55694 0 0 0 25.10612,-14.40222 289.55694,289.55694 0 0 0 23.54362,-16.83532 289.55694,289.55694 0 0 0 21.74577,-19.1021 289.55694,289.55694 0 0 0 19.72851,-21.17776 289.55694,289.55694 0 0 0 17.5166,-23.04284 289.55694,289.55694 0 0 0 15.12772,-24.67435 289.55694,289.55694 0 0 0 12.59022,-26.06166 289.55694,289.55694 0 0 0 9.92353,-27.18886 289.55694,289.55694 0 0 0 7.1613,-28.0453 289.55694,289.55694 0 0 0 4.32474,-28.61865 289.55694,289.55694 0 0 0 1.44747,-28.90706 289.55694,289.55694 0 0 0 -0.72551,-20.48234 289.55694,289.55694 0 0 0 -3.48774,-28.73189 289.55694,289.55694 0 0 0 -6.33846,-28.24172 289.55694,289.55694 0 0 0 -9.12725,-27.46667 289.55694,289.55694 0 0 0 -11.82224,-26.41912 289.55694,289.55694 0 0 0 -14.40222,-25.10611 289.55694,289.55694 0 0 0 -16.83532,-23.54362 289.55694,289.55694 0 0 0 -19.1021,-21.744 289.55694,289.55694 0 0 0 -21.17776,-19.73028 289.55694,289.55694 0 0 0 -23.04284,-17.51483 289.55694,289.55694 0 0 0 -24.67435,-15.1295 289.55694,289.55694 0 0 0 -26.06166,-12.58845 289.55694,289.55694 0 0 0 -27.18886,-9.9253 289.55694,289.55694 0 0 0 -28.0453,-7.16129 289.55694,289.55694 0 0 0 -28.61865,-4.32474 289.55694,289.55694 0 0 0 -28.90706,-1.44748 z"
       id="path4195"
       inkscape:connector-curvature="0" />
    <path
       style="fill:#ff0000;fill-opacity:1;stroke:#ff0000;stroke-width:1.47785091"
       d="M 372.04688 15.052734 A 356.99417 356.99417 0 0 0 15.052734 372.04688 A 356.99417 356.99417 0 0 0 372.04688 729.04102 A 356.99417 356.99417 0 0 0 729.04102 372.04688 A 356.99417 356.99417 0 0 0 372.04688 15.052734 z M 372.04688 52.447266 A 319.59918 319.59918 0 0 1 403.95312 54.044922 A 319.59918 319.59918 0 0 1 435.54102 58.818359 A 319.59918 319.59918 0 0 1 466.49609 66.722656 A 319.59918 319.59918 0 0 1 496.50586 77.677734 A 319.59918 319.59918 0 0 1 525.27148 91.572266 A 319.59918 319.59918 0 0 1 552.50586 108.27148 A 319.59918 319.59918 0 0 1 577.93945 127.60352 A 319.59918 319.59918 0 0 1 601.31445 149.38086 A 319.59918 319.59918 0 0 1 622.39844 173.38086 A 319.59918 319.59918 0 0 1 640.98047 199.36719 A 319.59918 319.59918 0 0 1 656.87695 227.07812 A 319.59918 319.59918 0 0 1 669.92578 256.23828 A 319.59918 319.59918 0 0 1 680 286.55469 A 319.59918 319.59918 0 0 1 686.99609 317.72656 A 319.59918 319.59918 0 0 1 690.8457 349.43945 A 319.59918 319.59918 0 0 1 691.64648 372.04688 A 319.59918 319.59918 0 0 1 690.04883 403.95312 A 319.59918 319.59918 0 0 1 685.27539 435.54102 A 319.59918 319.59918 0 0 1 677.37109 466.49609 A 319.59918 319.59918 0 0 1 666.41797 496.50586 A 319.59918 319.59918 0 0 1 652.52148 525.27148 A 319.59918 319.59918 0 0 1 635.82422 552.50586 A 319.59918 319.59918 0 0 1 616.49023 577.93945 A 319.59918 319.59918 0 0 1 594.71484 601.31445 A 319.59918 319.59918 0 0 1 570.71289 622.39844 A 319.59918 319.59918 0 0 1 544.72656 640.98047 A 319.59918 319.59918 0 0 1 517.01562 656.87695 A 319.59918 319.59918 0 0 1 487.85742 669.92578 A 319.59918 319.59918 0 0 1 457.53906 680 A 319.59918 319.59918 0 0 1 426.36914 686.99609 A 319.59918 319.59918 0 0 1 394.6543 690.8457 A 319.59918 319.59918 0 0 1 372.04688 691.64648 A 319.59918 319.59918 0 0 1 340.14062 690.04883 A 319.59918 319.59918 0 0 1 308.55273 685.27539 A 319.59918 319.59918 0 0 1 277.59961 677.37109 A 319.59918 319.59918 0 0 1 247.58984 666.41797 A 319.59918 319.59918 0 0 1 218.82227 652.52148 A 319.59918 319.59918 0 0 1 191.58789 635.82422 A 319.59918 319.59918 0 0 1 166.15625 616.49023 A 319.59918 319.59918 0 0 1 142.78125 594.71484 A 319.59918 319.59918 0 0 1 121.69727 570.71289 A 319.59918 319.59918 0 0 1 103.11328 544.72656 A 319.59918 319.59918 0 0 1 87.21875 517.01562 A 319.59918 319.59918 0 0 1 74.167969 487.85742 A 319.59918 319.59918 0 0 1 64.095703 457.53906 A 319.59918 319.59918 0 0 1 57.097656 426.36914 A 319.59918 319.59918 0 0 1 53.248047 394.6543 A 319.59918 319.59918 0 0 1 52.447266 372.04688 A 319.59918 319.59918 0 0 1 54.044922 340.14062 A 319.59918 319.59918 0 0 1 58.818359 308.55273 A 319.59918 319.59918 0 0 1 66.722656 277.59961 A 319.59918 319.59918 0 0 1 77.677734 247.58984 A 319.59918 319.59918 0 0 1 91.572266 218.82227 A 319.59918 319.59918 0 0 1 108.27148 191.58789 A 319.59918 319.59918 0 0 1 127.60352 166.15625 A 319.59918 319.59918 0 0 1 149.38086 142.78125 A 319.59918 319.59918 0 0 1 173.38086 121.69727 A 319.59918 319.59918 0 0 1 199.36719 103.11328 A 319.59918 319.59918 0 0 1 227.07812 87.21875 A 319.59918 319.59918 0 0 1 256.23828 74.167969 A 319.59918 319.59918 0 0 1 286.55469 64.095703 A 319.59918 319.59918 0 0 1 317.72656 57.097656 A 319.59918 319.59918 0 0 1 349.43945 53.248047 A 319.59918 319.59918 0 0 1 372.04688 52.447266 z "
       id="path4190"
       transform="translate(0,308.26772)" />
    <rect
       style="fill:#ffff00;fill-opacity:1;stroke:#ff0000;stroke-width:1.36614656"
       id="rect4197"
       width="33.091339"
       height="665.43781"
       x="-51.34145"
       y="409.4924" />
    <path
       style="fill:#ffff00;fill-opacity:1;stroke:#ff0000"
       d="M 406.25 84.738281 L 294.0918 286.57617 L 208.86719 133.20703 A 289.55694 289.55694 0 0 0 192.05469 145.23047 A 289.55694 289.55694 0 0 0 182.12109 153.95703 L 281.80273 333.34375 L 306.37891 333.34375 L 346.13281 261.80273 L 346.13281 660.30664 A 289.55694 289.55694 0 0 0 372.04688 661.60352 A 289.55694 289.55694 0 0 0 379.22461 661.34961 L 379.22461 517.20312 L 471.89648 643.61133 A 289.55694 289.55694 0 0 0 476.9707 641.92578 A 289.55694 289.55694 0 0 0 503.11328 630.22656 L 392.57422 479.44727 L 601.03711 195.09375 A 289.55694 289.55694 0 0 0 598.86523 192.05469 A 289.55694 289.55694 0 0 0 579.76367 170.31055 A 289.55694 289.55694 0 0 0 578.82031 169.43164 L 379.22461 441.6875 L 379.22461 202.25195 L 440.95312 91.167969 A 289.55694 289.55694 0 0 0 429.57227 88.261719 A 289.55694 289.55694 0 0 0 406.25 84.738281 z "
       transform="translate(0,308.26772)"
       id="rect4199" />
  </g>
</svg>
